<?xml version="1.0" encoding="UTF-8" standalone="no"?>
<!DOCTYPE svg PUBLIC "-//W3C//DTD SVG 1.1//EN" "http://www.w3.org/Graphics/SVG/1.1/DTD/svg11.dtd">
<svg version="1.1" xmlns="http://www.w3.org/2000/svg" xmlns:xlink="http://www.w3.org/1999/xlink" preserveAspectRatio="xMidYMid meet" viewBox="0 0 64 64" width="64" height="64"><defs><path d="M22.27 0.04L22.37 0.06L22.47 0.09L22.56 0.11L22.65 0.15L22.74 0.19L22.83 0.23L22.91 0.27L23 0.32L23.08 0.38L23.16 0.43L23.23 0.49L23.3 0.56L23.37 0.62L23.44 0.69L23.5 0.77L23.56 0.84L23.62 0.92L23.67 1L23.72 1.08L23.77 1.17L23.81 1.26L23.85 1.35L23.88 1.44L23.91 1.53L23.94 1.63L23.96 1.72L23.97 1.82L23.99 1.92L23.99 2.03L24 2.13L24 61.87L23.99 61.97L23.99 62.08L23.97 62.18L23.96 62.28L23.94 62.37L23.91 62.47L23.88 62.56L23.85 62.65L23.81 62.74L23.77 62.83L23.72 62.92L23.67 63L23.62 63.08L23.56 63.16L23.5 63.23L23.44 63.31L23.37 63.38L23.3 63.44L23.23 63.51L23.16 63.57L23.08 63.62L23 63.68L22.91 63.73L22.83 63.77L22.74 63.81L22.65 63.85L22.56 63.89L22.47 63.91L22.37 63.94L22.27 63.96L22.17 63.98L22.07 63.99L21.97 64L21.87 64L2.12 64L2.02 64L1.92 63.99L1.82 63.98L1.72 63.96L1.62 63.94L1.53 63.91L1.43 63.89L1.34 63.85L1.25 63.81L1.16 63.77L1.08 63.73L1 63.68L0.91 63.62L0.84 63.57L0.76 63.51L0.69 63.44L0.62 63.38L0.55 63.31L0.49 63.23L0.43 63.16L0.37 63.08L0.32 63L0.27 62.92L0.22 62.83L0.18 62.74L0.14 62.65L0.11 62.56L0.08 62.47L0.06 62.37L0.03 62.28L0.02 62.18L0.01 62.08L0 61.97L0 61.87L0 2.13L0 2.03L0.01 1.92L0.02 1.82L0.03 1.72L0.06 1.63L0.08 1.53L0.11 1.44L0.14 1.35L0.18 1.26L0.22 1.17L0.27 1.08L0.32 1L0.37 0.92L0.43 0.84L0.49 0.77L0.55 0.69L0.62 0.62L0.69 0.56L0.76 0.49L0.84 0.43L0.91 0.38L1 0.32L1.08 0.27L1.16 0.23L1.25 0.19L1.34 0.15L1.43 0.11L1.53 0.09L1.62 0.06L1.72 0.04L1.82 0.02L1.92 0.01L2.02 0L2.12 0L21.87 0L21.97 0L22.07 0.01L22.17 0.02L22.17 0.02L22.27 0.04ZM8.2 50.74L8 52L8.2 53.26L8.77 54.36L9.63 55.23L10.73 55.8L12 56L13.26 55.8L14.36 55.23L15.22 54.36L15.79 53.26L16 52L15.79 50.74L15.22 49.64L14.36 48.77L13.26 48.2L12 48L10.73 48.2L9.63 48.77L8.77 49.64L8.77 49.64L8.2 50.74Z" id="dHpr4CYhb"></path><path d="M28 57.83C46.51 37.76 58.08 25.21 62.71 20.19C63.72 19.1 63.67 17.4 62.6 16.37C59.53 13.41 52.09 6.21 48.98 3.21C48.05 2.31 46.55 2.38 45.71 3.36C43.36 6.09 37.48 12.91 28.07 23.84L28 57.83Z" id="b78Wjclzq"></path><path d="M28 63.9C45.83 63.9 56.97 63.9 61.43 63.9C62.85 63.9 64 62.75 64 61.33C64 57.04 64 46.18 64 41.75C64 40.73 63.17 39.9 62.15 39.9C60.54 39.9 56.52 39.9 50.08 39.9L28 63.9Z" id="b1aLW8obu"></path></defs><g><g><g><use xlink:href="#dHpr4CYhb" opacity="1" fill="#000000" fill-opacity="1"></use></g><g><use xlink:href="#b78Wjclzq" opacity="1" fill="#0e0e0e" fill-opacity="1"></use></g><g><use xlink:href="#b1aLW8obu" opacity="1" fill="#0e0e0e" fill-opacity="1"></use></g></g></g></svg>